<mxfile host="app.diagrams.net" modified="2022-09-01T09:05:29.348Z" agent="5.0 (Macintosh; Intel Mac OS X 10_15_7) AppleWebKit/537.36 (KHTML, like Gecko) Chrome/104.0.0.0 Safari/537.36" etag="M3pVJxR1dHkoWTh0NYDC" version="20.2.7" type="github">
  <diagram id="NWxFm_s083mvgHUfxwnu" name="第 1 页">
    <mxGraphModel dx="2253" dy="-400" grid="1" gridSize="10" guides="1" tooltips="1" connect="1" arrows="1" fold="1" page="1" pageScale="1" pageWidth="827" pageHeight="1169" math="0" shadow="0">
      <root>
        <mxCell id="0" />
        <mxCell id="1" parent="0" />
        <mxCell id="rD5DrQ6wlgLC9Fqci0pa-2" value="User u&lt;sub&gt;i&lt;/sub&gt;" style="shape=image;html=1;verticalAlign=bottom;verticalLabelPosition=top;labelBackgroundColor=#ffffff;imageAspect=0;aspect=fixed;image=https://cdn2.iconfinder.com/data/icons/font-awesome/1792/user-128.png;fontSize=20;labelPosition=center;align=center;" parent="1" vertex="1">
          <mxGeometry x="-740" y="1457.3533333333332" width="115" height="115" as="geometry" />
        </mxCell>
        <mxCell id="rD5DrQ6wlgLC9Fqci0pa-3" value="" style="shape=curlyBracket;whiteSpace=wrap;html=1;rounded=1;strokeWidth=3;" parent="1" vertex="1">
          <mxGeometry x="-606.02" y="1360" width="20" height="311.68" as="geometry" />
        </mxCell>
        <mxCell id="rD5DrQ6wlgLC9Fqci0pa-4" value="&lt;font style=&quot;font-size: 20px;&quot;&gt;Apple pie&amp;nbsp; 0.715&lt;/font&gt;" style="text;html=1;align=left;verticalAlign=middle;resizable=0;points=[];autosize=1;strokeColor=none;fillColor=none;" parent="1" vertex="1">
          <mxGeometry x="-560" y="1375.84" width="170" height="40" as="geometry" />
        </mxCell>
        <mxCell id="rD5DrQ6wlgLC9Fqci0pa-5" value="&lt;font style=&quot;font-size: 20px;&quot;&gt;Fried chicken&amp;nbsp; 0.499&lt;/font&gt;" style="text;html=1;align=left;verticalAlign=middle;resizable=0;points=[];autosize=1;strokeColor=none;fillColor=none;" parent="1" vertex="1">
          <mxGeometry x="-560" y="1435.84" width="200" height="40" as="geometry" />
        </mxCell>
        <mxCell id="rD5DrQ6wlgLC9Fqci0pa-6" value="&lt;font style=&quot;font-size: 20px;&quot;&gt;Price&amp;nbsp; 0.471&lt;/font&gt;" style="text;html=1;align=left;verticalAlign=middle;resizable=0;points=[];autosize=1;strokeColor=none;fillColor=none;" parent="1" vertex="1">
          <mxGeometry x="-560" y="1495.84" width="130" height="40" as="geometry" />
        </mxCell>
        <mxCell id="rD5DrQ6wlgLC9Fqci0pa-7" value="&lt;font style=&quot;font-size: 20px;&quot;&gt;Beef&amp;nbsp;steak&amp;nbsp; 0.238&lt;/font&gt;" style="text;html=1;align=left;verticalAlign=middle;resizable=0;points=[];autosize=1;strokeColor=none;fillColor=none;" parent="1" vertex="1">
          <mxGeometry x="-560" y="1615.84" width="180" height="40" as="geometry" />
        </mxCell>
        <mxCell id="rD5DrQ6wlgLC9Fqci0pa-8" value="" style="shape=image;html=1;verticalAlign=top;verticalLabelPosition=bottom;labelBackgroundColor=#ffffff;imageAspect=0;aspect=fixed;image=https://cdn1.iconfinder.com/data/icons/ionicons-sharp-vol-1/512/ellipsis-horizontal-sharp-128.png;dashed=1;fillStyle=auto;fontSize=18;strokeWidth=2;fillColor=none;" parent="1" vertex="1">
          <mxGeometry x="-560" y="1555.84" width="38" height="38" as="geometry" />
        </mxCell>
        <mxCell id="pqnOFuvYUbU6nKJekK7j-1" value="" style="group" vertex="1" connectable="0" parent="1">
          <mxGeometry x="-320" y="1360" width="480" height="311.68000000000006" as="geometry" />
        </mxCell>
        <mxCell id="rD5DrQ6wlgLC9Fqci0pa-9" value="Restaurant r&lt;sub&gt;k&lt;/sub&gt;" style="shape=image;html=1;verticalAlign=bottom;verticalLabelPosition=top;labelBackgroundColor=#ffffff;imageAspect=0;aspect=fixed;image=https://cdn1.iconfinder.com/data/icons/ionicons-outline-vol-2/512/restaurant-outline-128.png;fontSize=20;strokeWidth=3;labelPosition=center;align=center;" parent="pqnOFuvYUbU6nKJekK7j-1" vertex="1">
          <mxGeometry y="97.34999999999991" width="115" height="115" as="geometry" />
        </mxCell>
        <mxCell id="rD5DrQ6wlgLC9Fqci0pa-10" value="" style="shape=curlyBracket;whiteSpace=wrap;html=1;rounded=1;strokeWidth=3;" parent="pqnOFuvYUbU6nKJekK7j-1" vertex="1">
          <mxGeometry x="140" width="20" height="311.68" as="geometry" />
        </mxCell>
        <mxCell id="rD5DrQ6wlgLC9Fqci0pa-11" value="&lt;font color=&quot;#ff3333&quot; style=&quot;font-size: 20px;&quot;&gt;Apple pie&amp;nbsp; [15, 20, 5, 25]&lt;/font&gt;" style="text;html=1;align=left;verticalAlign=middle;resizable=0;points=[];autosize=1;strokeColor=none;fillColor=none;" parent="pqnOFuvYUbU6nKJekK7j-1" vertex="1">
          <mxGeometry x="190" y="15.839999999999918" width="240" height="40" as="geometry" />
        </mxCell>
        <mxCell id="rD5DrQ6wlgLC9Fqci0pa-12" value="&lt;font color=&quot;#ff3333&quot; style=&quot;font-size: 20px;&quot;&gt;Price&amp;nbsp;&amp;nbsp;&lt;/font&gt;&lt;span style=&quot;color: rgb(255, 51, 51); font-size: 20px;&quot;&gt;[4, 10, 6, 16]&lt;/span&gt;" style="text;html=1;align=left;verticalAlign=middle;resizable=0;points=[];autosize=1;strokeColor=none;fillColor=none;" parent="pqnOFuvYUbU6nKJekK7j-1" vertex="1">
          <mxGeometry x="190" y="75.83999999999992" width="190" height="40" as="geometry" />
        </mxCell>
        <mxCell id="rD5DrQ6wlgLC9Fqci0pa-13" value="" style="shape=image;html=1;verticalAlign=top;verticalLabelPosition=bottom;labelBackgroundColor=#ffffff;imageAspect=0;aspect=fixed;image=https://cdn1.iconfinder.com/data/icons/ionicons-sharp-vol-1/512/ellipsis-horizontal-sharp-128.png;dashed=1;fillStyle=auto;fontSize=18;strokeWidth=2;fillColor=none;" parent="pqnOFuvYUbU6nKJekK7j-1" vertex="1">
          <mxGeometry x="190" y="195.83999999999992" width="38" height="38" as="geometry" />
        </mxCell>
        <mxCell id="rD5DrQ6wlgLC9Fqci0pa-14" value="&lt;font style=&quot;font-size: 20px;&quot;&gt;Wine&amp;nbsp; [0, 7, 7, 14]&lt;/font&gt;" style="text;html=1;align=left;verticalAlign=middle;resizable=0;points=[];autosize=1;strokeColor=none;fillColor=none;" parent="pqnOFuvYUbU6nKJekK7j-1" vertex="1">
          <mxGeometry x="190" y="135.83999999999992" width="180" height="40" as="geometry" />
        </mxCell>
        <mxCell id="rD5DrQ6wlgLC9Fqci0pa-15" value="&lt;span style=&quot;font-size: 20px;&quot;&gt;&lt;font color=&quot;#ff3333&quot;&gt;Fried chicken&amp;nbsp; [-8, 12, 20, 32]&lt;/font&gt;&lt;/span&gt;" style="text;html=1;align=left;verticalAlign=middle;resizable=0;points=[];autosize=1;strokeColor=none;fillColor=none;" parent="pqnOFuvYUbU6nKJekK7j-1" vertex="1">
          <mxGeometry x="190" y="255.83999999999992" width="280" height="40" as="geometry" />
        </mxCell>
        <mxCell id="9gfAxA6gTP6AR32cZL3V-1" value="" style="verticalLabelPosition=bottom;verticalAlign=top;html=1;shape=mxgraph.basic.star;labelBackgroundColor=none;fillColor=#FFFF99;strokeColor=default;strokeWidth=2;aspect=fixed;" parent="pqnOFuvYUbU6nKJekK7j-1" vertex="1">
          <mxGeometry x="420" y="25.839999999999918" width="20" height="20" as="geometry" />
        </mxCell>
        <mxCell id="9gfAxA6gTP6AR32cZL3V-2" value="" style="verticalLabelPosition=bottom;verticalAlign=top;html=1;shape=mxgraph.basic.star;labelBackgroundColor=none;fillColor=#FFFF99;strokeColor=default;strokeWidth=2;aspect=fixed;" parent="pqnOFuvYUbU6nKJekK7j-1" vertex="1">
          <mxGeometry x="460" y="265.8399999999999" width="20" height="20" as="geometry" />
        </mxCell>
      </root>
    </mxGraphModel>
  </diagram>
</mxfile>
